<mxfile host="Electron" agent="Mozilla/5.0 (Windows NT 10.0; Win64; x64) AppleWebKit/537.36 (KHTML, like Gecko) draw.io/24.7.17 Chrome/128.0.6613.36 Electron/32.0.1 Safari/537.36" version="24.7.17">
  <diagram name="Page-1" id="57yvEe4TRkR4ltm_EQmU">
    <mxGraphModel dx="647" dy="1029" grid="1" gridSize="10" guides="1" tooltips="1" connect="1" arrows="1" fold="1" page="1" pageScale="1" pageWidth="850" pageHeight="1100" math="0" shadow="0">
      <root>
        <mxCell id="0" />
        <mxCell id="1" parent="0" />
        <mxCell id="QNMhVfp7GwCpYHeCxCwA-3" style="edgeStyle=orthogonalEdgeStyle;rounded=0;orthogonalLoop=1;jettySize=auto;html=1;entryX=0.5;entryY=0;entryDx=0;entryDy=0;" parent="1" source="QNMhVfp7GwCpYHeCxCwA-1" target="QNMhVfp7GwCpYHeCxCwA-2" edge="1">
          <mxGeometry relative="1" as="geometry" />
        </mxCell>
        <mxCell id="QNMhVfp7GwCpYHeCxCwA-1" value="ProcessTextandCalculateWidth&lt;div&gt;function is initiated&lt;/div&gt;" style="rounded=1;whiteSpace=wrap;html=1;arcSize=50;" parent="1" vertex="1">
          <mxGeometry x="10" y="40" width="200" height="80" as="geometry" />
        </mxCell>
        <mxCell id="QNMhVfp7GwCpYHeCxCwA-5" style="edgeStyle=orthogonalEdgeStyle;rounded=0;orthogonalLoop=1;jettySize=auto;html=1;entryX=0.5;entryY=0;entryDx=0;entryDy=0;" parent="1" source="QNMhVfp7GwCpYHeCxCwA-2" target="QNMhVfp7GwCpYHeCxCwA-4" edge="1">
          <mxGeometry relative="1" as="geometry" />
        </mxCell>
        <mxCell id="QNMhVfp7GwCpYHeCxCwA-2" value="Read a character from the text file" style="rounded=0;whiteSpace=wrap;html=1;" parent="1" vertex="1">
          <mxGeometry x="30" y="160" width="160" height="80" as="geometry" />
        </mxCell>
        <mxCell id="QNMhVfp7GwCpYHeCxCwA-7" style="edgeStyle=orthogonalEdgeStyle;rounded=0;orthogonalLoop=1;jettySize=auto;html=1;entryX=0;entryY=0.5;entryDx=0;entryDy=0;" parent="1" source="QNMhVfp7GwCpYHeCxCwA-4" target="QNMhVfp7GwCpYHeCxCwA-6" edge="1">
          <mxGeometry relative="1" as="geometry">
            <mxPoint x="280" y="340" as="targetPoint" />
          </mxGeometry>
        </mxCell>
        <mxCell id="QNMhVfp7GwCpYHeCxCwA-10" style="edgeStyle=orthogonalEdgeStyle;rounded=0;orthogonalLoop=1;jettySize=auto;html=1;entryX=0.5;entryY=0;entryDx=0;entryDy=0;" parent="1" source="QNMhVfp7GwCpYHeCxCwA-4" target="QNMhVfp7GwCpYHeCxCwA-9" edge="1">
          <mxGeometry relative="1" as="geometry" />
        </mxCell>
        <mxCell id="QNMhVfp7GwCpYHeCxCwA-4" value="Is the character&amp;nbsp;&lt;div&gt;EOF?&lt;/div&gt;" style="rhombus;whiteSpace=wrap;html=1;" parent="1" vertex="1">
          <mxGeometry x="30" y="278" width="160" height="110" as="geometry" />
        </mxCell>
        <mxCell id="QNMhVfp7GwCpYHeCxCwA-6" value="Exit the loop and end the function" style="rounded=0;whiteSpace=wrap;html=1;" parent="1" vertex="1">
          <mxGeometry x="290" y="293" width="200" height="80" as="geometry" />
        </mxCell>
        <mxCell id="QNMhVfp7GwCpYHeCxCwA-8" value="Yes" style="text;html=1;align=center;verticalAlign=middle;resizable=0;points=[];autosize=1;strokeColor=none;fillColor=none;" parent="1" vertex="1">
          <mxGeometry x="220" y="310" width="40" height="30" as="geometry" />
        </mxCell>
        <mxCell id="QNMhVfp7GwCpYHeCxCwA-13" style="edgeStyle=orthogonalEdgeStyle;rounded=0;orthogonalLoop=1;jettySize=auto;html=1;entryX=0.5;entryY=0;entryDx=0;entryDy=0;" parent="1" source="QNMhVfp7GwCpYHeCxCwA-9" target="QNMhVfp7GwCpYHeCxCwA-12" edge="1">
          <mxGeometry relative="1" as="geometry" />
        </mxCell>
        <mxCell id="QNMhVfp7GwCpYHeCxCwA-9" value="Continue reading" style="rounded=0;whiteSpace=wrap;html=1;" parent="1" vertex="1">
          <mxGeometry x="30" y="440" width="160" height="80" as="geometry" />
        </mxCell>
        <mxCell id="QNMhVfp7GwCpYHeCxCwA-11" value="No" style="text;html=1;align=center;verticalAlign=middle;resizable=0;points=[];autosize=1;strokeColor=none;fillColor=none;" parent="1" vertex="1">
          <mxGeometry x="110" y="408" width="40" height="30" as="geometry" />
        </mxCell>
        <mxCell id="QNMhVfp7GwCpYHeCxCwA-16" style="edgeStyle=orthogonalEdgeStyle;rounded=0;orthogonalLoop=1;jettySize=auto;html=1;entryX=0;entryY=0.5;entryDx=0;entryDy=0;" parent="1" source="QNMhVfp7GwCpYHeCxCwA-12" target="QNMhVfp7GwCpYHeCxCwA-14" edge="1">
          <mxGeometry relative="1" as="geometry" />
        </mxCell>
        <mxCell id="QNMhVfp7GwCpYHeCxCwA-23" style="edgeStyle=orthogonalEdgeStyle;rounded=0;orthogonalLoop=1;jettySize=auto;html=1;entryX=0.5;entryY=0;entryDx=0;entryDy=0;" parent="1" source="QNMhVfp7GwCpYHeCxCwA-12" target="QNMhVfp7GwCpYHeCxCwA-20" edge="1">
          <mxGeometry relative="1" as="geometry" />
        </mxCell>
        <mxCell id="QNMhVfp7GwCpYHeCxCwA-12" value="currentChar = &#39;\n&#39;?" style="rhombus;whiteSpace=wrap;html=1;" parent="1" vertex="1">
          <mxGeometry x="30" y="560" width="160" height="120" as="geometry" />
        </mxCell>
        <mxCell id="QNMhVfp7GwCpYHeCxCwA-17" style="edgeStyle=orthogonalEdgeStyle;rounded=0;orthogonalLoop=1;jettySize=auto;html=1;entryX=0;entryY=0.5;entryDx=0;entryDy=0;" parent="1" source="QNMhVfp7GwCpYHeCxCwA-14" target="QNMhVfp7GwCpYHeCxCwA-15" edge="1">
          <mxGeometry relative="1" as="geometry" />
        </mxCell>
        <mxCell id="QNMhVfp7GwCpYHeCxCwA-24" style="edgeStyle=orthogonalEdgeStyle;rounded=0;orthogonalLoop=1;jettySize=auto;html=1;entryX=0.5;entryY=0;entryDx=0;entryDy=0;" parent="1" source="QNMhVfp7GwCpYHeCxCwA-14" target="QNMhVfp7GwCpYHeCxCwA-21" edge="1">
          <mxGeometry relative="1" as="geometry" />
        </mxCell>
        <mxCell id="QNMhVfp7GwCpYHeCxCwA-14" value="currentChar = &#39;\r&#39;?" style="rhombus;whiteSpace=wrap;html=1;" parent="1" vertex="1">
          <mxGeometry x="280" y="560" width="160" height="120" as="geometry" />
        </mxCell>
        <mxCell id="QNMhVfp7GwCpYHeCxCwA-25" style="edgeStyle=orthogonalEdgeStyle;rounded=0;orthogonalLoop=1;jettySize=auto;html=1;entryX=0.5;entryY=0;entryDx=0;entryDy=0;" parent="1" source="QNMhVfp7GwCpYHeCxCwA-15" target="QNMhVfp7GwCpYHeCxCwA-22" edge="1">
          <mxGeometry relative="1" as="geometry" />
        </mxCell>
        <mxCell id="OdbH5gyBI3lRMCOzgLPB-2" style="edgeStyle=orthogonalEdgeStyle;rounded=0;orthogonalLoop=1;jettySize=auto;html=1;entryX=0.5;entryY=0;entryDx=0;entryDy=0;" edge="1" parent="1" source="QNMhVfp7GwCpYHeCxCwA-15" target="OdbH5gyBI3lRMCOzgLPB-1">
          <mxGeometry relative="1" as="geometry">
            <Array as="points">
              <mxPoint x="763" y="620" />
            </Array>
          </mxGeometry>
        </mxCell>
        <mxCell id="QNMhVfp7GwCpYHeCxCwA-15" value="currentChar = &#39;&amp;nbsp; &#39;?" style="rhombus;whiteSpace=wrap;html=1;" parent="1" vertex="1">
          <mxGeometry x="530" y="560" width="160" height="120" as="geometry" />
        </mxCell>
        <mxCell id="QNMhVfp7GwCpYHeCxCwA-18" value="No" style="text;html=1;align=center;verticalAlign=middle;resizable=0;points=[];autosize=1;strokeColor=none;fillColor=none;" parent="1" vertex="1">
          <mxGeometry x="210" y="598" width="40" height="30" as="geometry" />
        </mxCell>
        <mxCell id="QNMhVfp7GwCpYHeCxCwA-19" value="No" style="text;html=1;align=center;verticalAlign=middle;resizable=0;points=[];autosize=1;strokeColor=none;fillColor=none;" parent="1" vertex="1">
          <mxGeometry x="460" y="598" width="40" height="30" as="geometry" />
        </mxCell>
        <mxCell id="QNMhVfp7GwCpYHeCxCwA-32" style="edgeStyle=orthogonalEdgeStyle;rounded=0;orthogonalLoop=1;jettySize=auto;html=1;entryX=0.5;entryY=0;entryDx=0;entryDy=0;" parent="1" source="QNMhVfp7GwCpYHeCxCwA-20" target="QNMhVfp7GwCpYHeCxCwA-29" edge="1">
          <mxGeometry relative="1" as="geometry" />
        </mxCell>
        <mxCell id="QNMhVfp7GwCpYHeCxCwA-20" value="Reset current_x to 0" style="rounded=0;whiteSpace=wrap;html=1;" parent="1" vertex="1">
          <mxGeometry x="30" y="720" width="160" height="80" as="geometry" />
        </mxCell>
        <mxCell id="QNMhVfp7GwCpYHeCxCwA-21" value="Skip to next iteration" style="rounded=0;whiteSpace=wrap;html=1;" parent="1" vertex="1">
          <mxGeometry x="280" y="720" width="160" height="80" as="geometry" />
        </mxCell>
        <mxCell id="QNMhVfp7GwCpYHeCxCwA-33" style="edgeStyle=orthogonalEdgeStyle;rounded=0;orthogonalLoop=1;jettySize=auto;html=1;entryX=0.5;entryY=0;entryDx=0;entryDy=0;" parent="1" source="QNMhVfp7GwCpYHeCxCwA-22" target="QNMhVfp7GwCpYHeCxCwA-31" edge="1">
          <mxGeometry relative="1" as="geometry" />
        </mxCell>
        <mxCell id="QNMhVfp7GwCpYHeCxCwA-22" value="Add space_width to&amp;nbsp;&lt;div&gt;accumulated_width and current_x&lt;/div&gt;" style="rounded=0;whiteSpace=wrap;html=1;" parent="1" vertex="1">
          <mxGeometry x="525" y="720" width="170" height="80" as="geometry" />
        </mxCell>
        <mxCell id="QNMhVfp7GwCpYHeCxCwA-26" value="Yes" style="text;html=1;align=center;verticalAlign=middle;resizable=0;points=[];autosize=1;strokeColor=none;fillColor=none;" parent="1" vertex="1">
          <mxGeometry x="110" y="690" width="40" height="30" as="geometry" />
        </mxCell>
        <mxCell id="QNMhVfp7GwCpYHeCxCwA-27" value="Yes" style="text;html=1;align=center;verticalAlign=middle;resizable=0;points=[];autosize=1;strokeColor=none;fillColor=none;" parent="1" vertex="1">
          <mxGeometry x="610" y="690" width="40" height="30" as="geometry" />
        </mxCell>
        <mxCell id="QNMhVfp7GwCpYHeCxCwA-28" value="Yes" style="text;html=1;align=center;verticalAlign=middle;resizable=0;points=[];autosize=1;strokeColor=none;fillColor=none;" parent="1" vertex="1">
          <mxGeometry x="360" y="690" width="40" height="30" as="geometry" />
        </mxCell>
        <mxCell id="QNMhVfp7GwCpYHeCxCwA-35" style="edgeStyle=orthogonalEdgeStyle;rounded=0;orthogonalLoop=1;jettySize=auto;html=1;entryX=0.5;entryY=0;entryDx=0;entryDy=0;" parent="1" source="QNMhVfp7GwCpYHeCxCwA-29" target="QNMhVfp7GwCpYHeCxCwA-34" edge="1">
          <mxGeometry relative="1" as="geometry" />
        </mxCell>
        <mxCell id="QNMhVfp7GwCpYHeCxCwA-29" value="Subtract (LINE_GAP +textHeight) from current_y" style="rounded=0;whiteSpace=wrap;html=1;" parent="1" vertex="1">
          <mxGeometry x="30" y="840" width="160" height="80" as="geometry" />
        </mxCell>
        <mxCell id="QNMhVfp7GwCpYHeCxCwA-37" style="edgeStyle=orthogonalEdgeStyle;rounded=0;orthogonalLoop=1;jettySize=auto;html=1;entryX=0.5;entryY=0;entryDx=0;entryDy=0;" parent="1" source="QNMhVfp7GwCpYHeCxCwA-31" target="QNMhVfp7GwCpYHeCxCwA-38" edge="1">
          <mxGeometry relative="1" as="geometry">
            <mxPoint x="610" y="920" as="targetPoint" />
          </mxGeometry>
        </mxCell>
        <mxCell id="QNMhVfp7GwCpYHeCxCwA-31" value="Add space_width to accumulated width and current_x" style="rounded=0;whiteSpace=wrap;html=1;" parent="1" vertex="1">
          <mxGeometry x="522.5" y="838" width="175" height="82" as="geometry" />
        </mxCell>
        <mxCell id="QNMhVfp7GwCpYHeCxCwA-34" value="Reset accumulated_width&lt;div&gt;&amp;nbsp;to 0&lt;/div&gt;" style="rounded=0;whiteSpace=wrap;html=1;" parent="1" vertex="1">
          <mxGeometry x="30" y="960" width="160" height="80" as="geometry" />
        </mxCell>
        <mxCell id="OdbH5gyBI3lRMCOzgLPB-19" style="edgeStyle=orthogonalEdgeStyle;rounded=0;orthogonalLoop=1;jettySize=auto;html=1;entryX=1;entryY=0.5;entryDx=0;entryDy=0;" edge="1" parent="1" source="QNMhVfp7GwCpYHeCxCwA-38" target="OdbH5gyBI3lRMCOzgLPB-18">
          <mxGeometry relative="1" as="geometry" />
        </mxCell>
        <mxCell id="QNMhVfp7GwCpYHeCxCwA-38" value="accumulated_width&lt;div&gt;&amp;gt; MAX_TEXT_WIDTH?&lt;/div&gt;" style="rhombus;whiteSpace=wrap;html=1;" parent="1" vertex="1">
          <mxGeometry x="530" y="960" width="160" height="120" as="geometry" />
        </mxCell>
        <mxCell id="OdbH5gyBI3lRMCOzgLPB-5" style="edgeStyle=orthogonalEdgeStyle;rounded=0;orthogonalLoop=1;jettySize=auto;html=1;entryX=0.5;entryY=0;entryDx=0;entryDy=0;" edge="1" parent="1" source="OdbH5gyBI3lRMCOzgLPB-1" target="OdbH5gyBI3lRMCOzgLPB-4">
          <mxGeometry relative="1" as="geometry" />
        </mxCell>
        <mxCell id="OdbH5gyBI3lRMCOzgLPB-1" value="Retrieve ascii_value&amp;nbsp; for currentChar and corresponding CharacterData from fontData" style="rounded=0;whiteSpace=wrap;html=1;" vertex="1" parent="1">
          <mxGeometry x="680" y="1120" width="165" height="80" as="geometry" />
        </mxCell>
        <mxCell id="OdbH5gyBI3lRMCOzgLPB-3" value="No" style="text;html=1;align=center;verticalAlign=middle;resizable=0;points=[];autosize=1;strokeColor=none;fillColor=none;" vertex="1" parent="1">
          <mxGeometry x="760" y="838" width="40" height="30" as="geometry" />
        </mxCell>
        <mxCell id="OdbH5gyBI3lRMCOzgLPB-8" style="edgeStyle=orthogonalEdgeStyle;rounded=0;orthogonalLoop=1;jettySize=auto;html=1;entryX=1;entryY=0.5;entryDx=0;entryDy=0;" edge="1" parent="1" source="OdbH5gyBI3lRMCOzgLPB-4" target="OdbH5gyBI3lRMCOzgLPB-7">
          <mxGeometry relative="1" as="geometry" />
        </mxCell>
        <mxCell id="OdbH5gyBI3lRMCOzgLPB-9" style="edgeStyle=orthogonalEdgeStyle;rounded=0;orthogonalLoop=1;jettySize=auto;html=1;entryX=0.5;entryY=0;entryDx=0;entryDy=0;" edge="1" parent="1" source="OdbH5gyBI3lRMCOzgLPB-4" target="OdbH5gyBI3lRMCOzgLPB-6">
          <mxGeometry relative="1" as="geometry" />
        </mxCell>
        <mxCell id="OdbH5gyBI3lRMCOzgLPB-4" value="stroke_count == 0?" style="rhombus;whiteSpace=wrap;html=1;" vertex="1" parent="1">
          <mxGeometry x="682.5" y="1240" width="160" height="120" as="geometry" />
        </mxCell>
        <mxCell id="OdbH5gyBI3lRMCOzgLPB-13" style="edgeStyle=orthogonalEdgeStyle;rounded=0;orthogonalLoop=1;jettySize=auto;html=1;entryX=0.5;entryY=0;entryDx=0;entryDy=0;" edge="1" parent="1" source="OdbH5gyBI3lRMCOzgLPB-6" target="OdbH5gyBI3lRMCOzgLPB-12">
          <mxGeometry relative="1" as="geometry" />
        </mxCell>
        <mxCell id="OdbH5gyBI3lRMCOzgLPB-6" value="Calculate char_width scaled by textHeight&amp;nbsp;" style="rounded=0;whiteSpace=wrap;html=1;" vertex="1" parent="1">
          <mxGeometry x="680" y="1400" width="165" height="80" as="geometry" />
        </mxCell>
        <mxCell id="OdbH5gyBI3lRMCOzgLPB-7" value="Skip unsupported character" style="rounded=0;whiteSpace=wrap;html=1;" vertex="1" parent="1">
          <mxGeometry x="430" y="1260" width="165" height="80" as="geometry" />
        </mxCell>
        <mxCell id="OdbH5gyBI3lRMCOzgLPB-10" value="Yes" style="text;html=1;align=center;verticalAlign=middle;resizable=0;points=[];autosize=1;strokeColor=none;fillColor=none;" vertex="1" parent="1">
          <mxGeometry x="620" y="1270" width="40" height="30" as="geometry" />
        </mxCell>
        <mxCell id="OdbH5gyBI3lRMCOzgLPB-11" value="No" style="text;html=1;align=center;verticalAlign=middle;resizable=0;points=[];autosize=1;strokeColor=none;fillColor=none;" vertex="1" parent="1">
          <mxGeometry x="760" y="1368" width="40" height="30" as="geometry" />
        </mxCell>
        <mxCell id="OdbH5gyBI3lRMCOzgLPB-15" style="edgeStyle=orthogonalEdgeStyle;rounded=0;orthogonalLoop=1;jettySize=auto;html=1;entryX=1;entryY=0.5;entryDx=0;entryDy=0;" edge="1" parent="1" source="OdbH5gyBI3lRMCOzgLPB-12" target="OdbH5gyBI3lRMCOzgLPB-14">
          <mxGeometry relative="1" as="geometry" />
        </mxCell>
        <mxCell id="OdbH5gyBI3lRMCOzgLPB-21" style="edgeStyle=orthogonalEdgeStyle;rounded=0;orthogonalLoop=1;jettySize=auto;html=1;entryX=0.5;entryY=0;entryDx=0;entryDy=0;" edge="1" parent="1" source="OdbH5gyBI3lRMCOzgLPB-12" target="OdbH5gyBI3lRMCOzgLPB-20">
          <mxGeometry relative="1" as="geometry" />
        </mxCell>
        <mxCell id="OdbH5gyBI3lRMCOzgLPB-12" value="accumulated_width + char_width &amp;gt; MAX_TEXT_WIDTH?" style="rhombus;whiteSpace=wrap;html=1;" vertex="1" parent="1">
          <mxGeometry x="682.5" y="1520" width="160" height="120" as="geometry" />
        </mxCell>
        <mxCell id="OdbH5gyBI3lRMCOzgLPB-14" value="Start a new line" style="rounded=0;whiteSpace=wrap;html=1;" vertex="1" parent="1">
          <mxGeometry x="430" y="1540" width="165" height="80" as="geometry" />
        </mxCell>
        <mxCell id="OdbH5gyBI3lRMCOzgLPB-16" value="Yes" style="text;html=1;align=center;verticalAlign=middle;resizable=0;points=[];autosize=1;strokeColor=none;fillColor=none;" vertex="1" parent="1">
          <mxGeometry x="620" y="1560" width="40" height="30" as="geometry" />
        </mxCell>
        <mxCell id="OdbH5gyBI3lRMCOzgLPB-18" value="Start a new line&amp;nbsp;" style="rounded=0;whiteSpace=wrap;html=1;" vertex="1" parent="1">
          <mxGeometry x="280" y="980" width="160" height="80" as="geometry" />
        </mxCell>
        <mxCell id="OdbH5gyBI3lRMCOzgLPB-25" style="edgeStyle=orthogonalEdgeStyle;rounded=0;orthogonalLoop=1;jettySize=auto;html=1;entryX=0.5;entryY=0;entryDx=0;entryDy=0;" edge="1" parent="1" source="OdbH5gyBI3lRMCOzgLPB-20" target="OdbH5gyBI3lRMCOzgLPB-23">
          <mxGeometry relative="1" as="geometry" />
        </mxCell>
        <mxCell id="OdbH5gyBI3lRMCOzgLPB-20" value="Iterate through strokes in character.strokes" style="rounded=0;whiteSpace=wrap;html=1;" vertex="1" parent="1">
          <mxGeometry x="680" y="1680" width="165" height="80" as="geometry" />
        </mxCell>
        <mxCell id="OdbH5gyBI3lRMCOzgLPB-22" value="No" style="text;html=1;align=center;verticalAlign=middle;resizable=0;points=[];autosize=1;strokeColor=none;fillColor=none;" vertex="1" parent="1">
          <mxGeometry x="760" y="1650" width="40" height="30" as="geometry" />
        </mxCell>
        <mxCell id="OdbH5gyBI3lRMCOzgLPB-26" style="edgeStyle=orthogonalEdgeStyle;rounded=0;orthogonalLoop=1;jettySize=auto;html=1;entryX=0.5;entryY=0;entryDx=0;entryDy=0;" edge="1" parent="1" source="OdbH5gyBI3lRMCOzgLPB-23" target="OdbH5gyBI3lRMCOzgLPB-24">
          <mxGeometry relative="1" as="geometry" />
        </mxCell>
        <mxCell id="OdbH5gyBI3lRMCOzgLPB-23" value="Calculate scaled x and y coordinates" style="rounded=0;whiteSpace=wrap;html=1;fontFamily=Helvetica;" vertex="1" parent="1">
          <mxGeometry x="680" y="1800" width="165" height="80" as="geometry" />
        </mxCell>
        <mxCell id="OdbH5gyBI3lRMCOzgLPB-28" style="edgeStyle=orthogonalEdgeStyle;rounded=0;orthogonalLoop=1;jettySize=auto;html=1;entryX=0.5;entryY=0;entryDx=0;entryDy=0;" edge="1" parent="1" source="OdbH5gyBI3lRMCOzgLPB-24" target="OdbH5gyBI3lRMCOzgLPB-27">
          <mxGeometry relative="1" as="geometry" />
        </mxCell>
        <mxCell id="OdbH5gyBI3lRMCOzgLPB-24" value="Adjust &lt;code&gt;x&lt;/code&gt; and &lt;code&gt;y&lt;/code&gt; based on &lt;code&gt;current_x&lt;/code&gt; and &lt;code&gt;current_y&lt;/code&gt;." style="rounded=0;whiteSpace=wrap;html=1;fontFamily=Helvetica;" vertex="1" parent="1">
          <mxGeometry x="680" y="1920" width="165" height="80" as="geometry" />
        </mxCell>
        <mxCell id="OdbH5gyBI3lRMCOzgLPB-30" style="edgeStyle=orthogonalEdgeStyle;rounded=0;orthogonalLoop=1;jettySize=auto;html=1;entryX=0.5;entryY=0;entryDx=0;entryDy=0;" edge="1" parent="1" source="OdbH5gyBI3lRMCOzgLPB-27" target="OdbH5gyBI3lRMCOzgLPB-29">
          <mxGeometry relative="1" as="geometry" />
        </mxCell>
        <mxCell id="OdbH5gyBI3lRMCOzgLPB-27" value="&lt;div&gt;Call &lt;code&gt;generateAndSendGCode()&lt;/code&gt; with the calculated values and &lt;code&gt;prev_pen_state&lt;/code&gt;&lt;/div&gt;" style="rounded=0;whiteSpace=wrap;html=1;" vertex="1" parent="1">
          <mxGeometry x="680" y="2040" width="165" height="80" as="geometry" />
        </mxCell>
        <mxCell id="OdbH5gyBI3lRMCOzgLPB-31" style="edgeStyle=orthogonalEdgeStyle;rounded=0;orthogonalLoop=1;jettySize=auto;html=1;entryX=0;entryY=0.5;entryDx=0;entryDy=0;" edge="1" parent="1" source="OdbH5gyBI3lRMCOzgLPB-29" target="QNMhVfp7GwCpYHeCxCwA-2">
          <mxGeometry relative="1" as="geometry">
            <mxPoint x="10" y="328.57142857142856" as="targetPoint" />
          </mxGeometry>
        </mxCell>
        <mxCell id="OdbH5gyBI3lRMCOzgLPB-33" style="edgeStyle=orthogonalEdgeStyle;rounded=0;orthogonalLoop=1;jettySize=auto;html=1;entryX=0.5;entryY=0;entryDx=0;entryDy=0;" edge="1" parent="1" source="OdbH5gyBI3lRMCOzgLPB-29" target="OdbH5gyBI3lRMCOzgLPB-32">
          <mxGeometry relative="1" as="geometry" />
        </mxCell>
        <mxCell id="OdbH5gyBI3lRMCOzgLPB-29" value="Add char_width to accumulated_width and current_x" style="rounded=0;whiteSpace=wrap;html=1;" vertex="1" parent="1">
          <mxGeometry x="680" y="2160" width="165" height="80" as="geometry" />
        </mxCell>
        <mxCell id="OdbH5gyBI3lRMCOzgLPB-32" value="Return from the function" style="rounded=1;whiteSpace=wrap;html=1;arcSize=50;" vertex="1" parent="1">
          <mxGeometry x="680" y="2280" width="165" height="80" as="geometry" />
        </mxCell>
      </root>
    </mxGraphModel>
  </diagram>
</mxfile>
